<?xml version="1.0" encoding="utf-8"?>
<!-- Generator: Adobe Illustrator 26.0.1, SVG Export Plug-In . SVG Version: 6.00 Build 0)  -->
<svg version="1.1" id="레이어_1" xmlns="http://www.w3.org/2000/svg" xmlns:xlink="http://www.w3.org/1999/xlink" x="0px"
	 y="0px" viewBox="0 0 24 24" style="enable-background:new 0 0 24 24;" xml:space="preserve">
<path d="M13.714,12.369L13.345,12l0.369-0.369L23.721,1.624C23.901,1.444,24,1.205,24,0.951s-0.099-0.493-0.279-0.673
	C23.542,0.099,23.303,0,23.049,0c-0.254,0-0.493,0.099-0.673,0.278L12.369,10.286L12,10.655l-0.369-0.369L1.624,0.279
	C1.445,0.099,1.206,0,0.952,0C0.697,0,0.458,0.099,0.279,0.279C0.099,0.458,0,0.697,0,0.951s0.099,0.493,0.279,0.673l10.007,10.007
	L10.655,12l-0.369,0.369L0.279,22.376C0.099,22.556,0,22.794,0,23.049c0,0.254,0.099,0.493,0.279,0.672
	C0.458,23.901,0.697,24,0.951,24c0.254,0,0.493-0.099,0.672-0.279l10.007-10.007L12,13.345l0.369,0.369l10.007,10.007
	c0.18,0.18,0.418,0.279,0.673,0.279c0.254,0,0.493-0.099,0.672-0.279c0.18-0.18,0.279-0.419,0.279-0.673
	c0-0.254-0.099-0.493-0.279-0.673L13.714,12.369z"/>
</svg>
