<?xml version="1.0" encoding="utf-8"?>
<!-- Generator: Adobe Illustrator 26.0.1, SVG Export Plug-In . SVG Version: 6.00 Build 0)  -->
<svg version="1.1" id="레이어_1" xmlns="http://www.w3.org/2000/svg" xmlns:xlink="http://www.w3.org/1999/xlink" x="0px"
	 y="0px" viewBox="0 0 20 20" style="enable-background:new 0 0 20 20;" xml:space="preserve">
<style type="text/css">
	.st0{fill:#A8A8A8;}
</style>
<g>
	<path class="st0" d="M10.542,10l5.547-5.316c0.105-0.1,0.165-0.235,0.169-0.38c0.003-0.145-0.051-0.283-0.151-0.386
		c-0.101-0.104-0.235-0.164-0.38-0.167c-0.146,0.006-0.281,0.051-0.386,0.15L9.384,9.608C9.278,9.71,9.217,9.853,9.217,10
		c0,0.148,0.061,0.291,0.167,0.391l5.958,5.709c0.102,0.097,0.234,0.149,0.374,0.149c0.147,0,0.29-0.062,0.39-0.166
		c0.101-0.104,0.154-0.241,0.152-0.386c-0.003-0.146-0.062-0.281-0.168-0.382L10.542,10z"/>
	<path class="st0" d="M5.067,10l5.548-5.317c0.104-0.1,0.164-0.235,0.167-0.38c0.003-0.145-0.05-0.282-0.151-0.387
		c-0.207-0.215-0.55-0.222-0.766-0.016L3.909,9.609C3.803,9.711,3.743,9.854,3.743,10c0,0.147,0.061,0.29,0.167,0.391l5.958,5.709
		c0.102,0.097,0.234,0.149,0.374,0.149c0.146,0,0.289-0.061,0.392-0.167c0.206-0.215,0.199-0.559-0.017-0.767L5.067,10z"/>
</g>
</svg>
