<?xml version="1.0" encoding="utf-8"?>
<!-- Generator: Adobe Illustrator 26.0.1, SVG Export Plug-In . SVG Version: 6.00 Build 0)  -->
<svg version="1.1" id="레이어_1" xmlns="http://www.w3.org/2000/svg" xmlns:xlink="http://www.w3.org/1999/xlink" x="0px"
	 y="0px" viewBox="0 0 20 20" style="enable-background:new 0 0 20 20;" xml:space="preserve">
<style type="text/css">
	.st0{fill:#A8A8A8;}
</style>
<g>
	<path class="st0" d="M9.458,10L3.911,4.684c-0.105-0.1-0.165-0.235-0.169-0.38C3.74,4.158,3.793,4.021,3.894,3.917
		c0.101-0.104,0.235-0.164,0.38-0.167C4.419,3.756,4.555,3.801,4.659,3.9l5.957,5.708C10.722,9.71,10.783,9.853,10.783,10
		c0,0.148-0.061,0.291-0.167,0.391l-5.958,5.709c-0.102,0.097-0.234,0.149-0.374,0.149c-0.147,0-0.29-0.062-0.39-0.166
		c-0.101-0.104-0.154-0.241-0.152-0.386c0.003-0.146,0.062-0.281,0.168-0.382L9.458,10z"/>
	<path class="st0" d="M14.933,10L9.385,4.683c-0.104-0.1-0.164-0.235-0.167-0.38c-0.003-0.145,0.05-0.282,0.151-0.387
		c0.207-0.215,0.55-0.222,0.766-0.016l5.958,5.709c0.105,0.102,0.166,0.244,0.166,0.391c0,0.147-0.061,0.29-0.167,0.391
		l-5.958,5.709c-0.102,0.097-0.234,0.149-0.374,0.149c-0.146,0-0.289-0.061-0.392-0.167c-0.206-0.215-0.199-0.559,0.017-0.767
		L14.933,10z"/>
</g>
</svg>
