<?xml version="1.0" encoding="utf-8"?>
<!-- Generator: Adobe Illustrator 26.0.1, SVG Export Plug-In . SVG Version: 6.00 Build 0)  -->
<svg version="1.1" id="레이어_1" xmlns="http://www.w3.org/2000/svg" xmlns:xlink="http://www.w3.org/1999/xlink" x="0px"
	 y="0px" viewBox="0 0 20 20" style="enable-background:new 0 0 20 20;" xml:space="preserve">
<style type="text/css">
	.st0{fill:#A8A8A8;}
</style>
<g>
	<path class="st0" d="M12.195,10L6.647,4.683c-0.104-0.1-0.164-0.235-0.167-0.38C6.477,4.158,6.53,4.021,6.631,3.916
		C6.837,3.701,7.181,3.694,7.397,3.9l5.958,5.709C13.46,9.711,13.52,9.853,13.52,10c0,0.147-0.061,0.29-0.167,0.391L7.396,16.1
		c-0.102,0.097-0.234,0.149-0.374,0.149c-0.146,0-0.289-0.061-0.392-0.167c-0.206-0.215-0.199-0.559,0.017-0.767L12.195,10z"/>
</g>
</svg>
