<?xml version="1.0" encoding="utf-8"?>
<!-- Generator: Adobe Illustrator 26.0.1, SVG Export Plug-In . SVG Version: 6.00 Build 0)  -->
<svg version="1.1" id="레이어_1" xmlns="http://www.w3.org/2000/svg" xmlns:xlink="http://www.w3.org/1999/xlink" x="0px"
	 y="0px" viewBox="0 0 20 20" style="enable-background:new 0 0 20 20;" xml:space="preserve">
<style type="text/css">
	.st0{fill:#A8A8A8;}
</style>
<g>
	<path class="st0" d="M7.805,10l5.548-5.317c0.104-0.1,0.164-0.235,0.167-0.38c0.003-0.145-0.05-0.282-0.151-0.387
		c-0.207-0.215-0.55-0.222-0.766-0.016L6.646,9.609C6.54,9.711,6.48,9.853,6.48,10c0,0.147,0.061,0.29,0.167,0.391l5.958,5.709
		c0.102,0.097,0.234,0.149,0.374,0.149c0.146,0,0.289-0.061,0.392-0.167c0.206-0.215,0.199-0.559-0.017-0.767L7.805,10z"/>
</g>
</svg>
